# xmcd CD database file
#
# Track frame offsets:
#	150
#	13235
#	24415
#	37587
#	50170
#	61380
#	73622
#	83915
#	96222
#	106495
#	117045
#	128980
#	139110
#	149835
#	160065
#	172205
#	183302
#	194720
#	205535
#	216332
#	226437
#	238937
#	249470
#	260617
#	271760
#	284522
#
# Disc length: 3915 seconds
#
# Revision: 2
# Processed by: cddbd v1.5PL3 Copyright (c) Steve Scherf et al.
# Submitted via: CDex 1.51
#
DISCID=8f0f491a
DTITLE=Leon Chappel - Automatic Mama
DYEAR=1999
DGENRE=Country
TTITLE0=You Hear Me Talkin' 
TTITLE1=True Blue Papa 
TTITLE2=Keep Him Satisfied 
TTITLE3=Slowdown Sweet Mama 
TTITLE4=Streamlined Gal 
TTITLE5=Tell Me Mama 
TTITLE6=I'm A Do-Right Daddy 
TTITLE7=Take Your Time Mama 
TTITLE8=(I'm A) Long Gone Doggie 
TTITLE9=Gonna Turn You Loose 
TTITLE10=You're A Lovin' Woman 
TTITLE11=Little Bitty Blues 
TTITLE12=Don't Dog Me Around 
TTITLE13=True Detective 
TTITLE14=Automatic Mama 
TTITLE15=Lowdown Lonesome Blues 
TTITLE16=Booger Blues 
TTITLE17=Just A Blue-Eyed Blonde 
TTITLE18=Double Up And Catch Up 
TTITLE19=What Makes You Hesitate 
TTITLE20=Sweethearts Or Friends 
TTITLE21=How Come You Do Me Like You Do 
TTITLE22=New Do-Right Daddy 
TTITLE23=I'm Gettin' Mighty Tired 
TTITLE24=A True Man's Hard To Find 
TTITLE25=I'm Checkin' You Out 
EXTD=YEAR: 1999
EXTT0=
EXTT1=
EXTT2=
EXTT3=
EXTT4=
EXTT5=
EXTT6=
EXTT7=
EXTT8=
EXTT9=
EXTT10=
EXTT11=
EXTT12=
EXTT13=
EXTT14=
EXTT15=
EXTT16=
EXTT17=
EXTT18=
EXTT19=
EXTT20=
EXTT21=
EXTT22=
EXTT23=
EXTT24=
EXTT25=
PLAYORDER=
